<?xml version="1.0" standalone="no"?>
<!DOCTYPE svg PUBLIC "-//W3C//DTD SVG 20010904//EN"
 "http://www.w3.org/TR/2001/REC-SVG-20010904/DTD/svg10.dtd">
<svg version="1.0" xmlns="http://www.w3.org/2000/svg"
 width="2550.000000pt" height="3300.000000pt" viewBox="0 0 2550.000000 3300.000000"
 preserveAspectRatio="xMidYMid meet">

<g transform="translate(0.000000,3300.000000) scale(0.100000,-0.100000)"
fill="#000000" stroke="none">
<path d="M13190 24203 c-1007 -40 -1887 -338 -2680 -906 -370 -266 -746 -633
-1025 -1003 -259 -343 -489 -749 -631 -1119 -19 -49 -37 -92 -41 -95 -3 -3 -3
54 -1 127 l4 132 -44 -107 c-145 -360 -256 -778 -307 -1163 -98 -736 -32
-1484 192 -2172 45 -141 146 -413 156 -423 1 -1 1 57 -1 129 l-2 132 46 -115
c57 -144 210 -460 294 -605 449 -781 1113 -1423 1911 -1850 1402 -751 3106
-751 4507 -1 410 220 757 474 1110 813 l92 90 0 -59 c0 -32 4 -58 9 -58 5 0
52 45 105 100 l96 101 0 74 0 75 93 118 c235 296 393 549 563 897 440 901 582
1917 408 2915 -139 796 -478 1544 -988 2179 l-76 95 0 74 0 74 -97 104 c-53
57 -100 104 -105 104 -4 0 -8 -28 -8 -62 l0 -63 -92 91 c-688 675 -1556 1126
-2498 1298 -307 57 -727 90 -990 79z m10 -303 c0 -25 -4 -30 -25 -30 -21 0
-25 5 -25 30 0 25 4 30 25 30 21 0 25 -5 25 -30z m850 -12 c0 -7 -10 -84 -22
-171 -19 -131 -20 -161 -10 -178 17 -27 14 -30 -32 -22 -30 5 -37 9 -33 24 6
23 6 23 -29 4 -39 -20 -66 -19 -97 5 -79 62 -22 240 76 240 20 0 47 -4 60 -9
24 -9 25 -8 30 37 4 34 1 52 -10 65 -15 16 -13 17 25 17 27 0 42 -5 42 -12z
m-1360 -3 c0 -3 -5 -13 -11 -23 -9 -14 -6 -43 10 -121 24 -119 26 -150 9 -186
-23 -51 -121 -79 -176 -51 -35 18 -55 65 -72 166 -18 103 -29 140 -45 140 -35
0 -11 19 36 29 57 12 68 9 50 -13 -10 -12 -8 -41 11 -138 26 -143 46 -175 100
-164 47 9 58 24 58 75 -1 78 -35 233 -55 248 -23 16 -19 20 31 32 50 12 54 12
54 6z m690 -25 c0 -28 2 -30 40 -30 29 0 40 -4 40 -15 0 -11 -11 -15 -40 -15
l-40 0 -2 -57 c-4 -128 4 -148 55 -137 31 7 37 -10 8 -26 -23 -12 -71 -13 -89
-2 -22 14 -32 75 -26 150 6 69 6 72 -15 72 -26 0 -27 11 -1 28 11 7 20 20 20
30 0 24 9 32 32 32 13 0 18 -8 18 -30z m-175 -146 c5 -84 11 -117 21 -121 31
-12 11 -23 -43 -23 -54 0 -55 1 -40 18 18 20 21 54 11 151 -5 41 -11 61 -20
61 -20 0 -17 18 4 23 60 16 59 16 67 -109z m490 81 c14 -13 25 -32 25 -42 0
-10 3 -28 7 -41 6 -23 6 -24 -81 -20 l-86 3 0 -28 c0 -63 51 -93 109 -63 20
11 32 12 36 5 4 -6 5 -12 4 -13 -35 -26 -61 -36 -97 -36 -35 0 -49 6 -74 30
-29 29 -30 34 -26 102 3 64 7 73 36 99 43 39 111 41 147 4z m702 1 c6 -6 28
-72 48 -146 20 -74 38 -136 39 -138 2 -1 16 46 31 104 24 89 26 110 16 127
-12 19 -11 20 30 13 58 -9 63 -15 37 -39 -17 -16 -34 -63 -63 -169 -31 -117
-43 -148 -57 -148 -18 0 -18 1 -79 225 -18 66 -35 111 -37 100 -2 -11 -17 -69
-34 -128 -23 -86 -27 -111 -17 -123 18 -22 5 -27 -40 -14 -39 10 -57 30 -27
30 16 0 19 10 66 179 23 82 29 116 21 124 -6 6 -11 15 -11 20 0 11 62 -2 77
-17z m-1400 6 c18 -12 30 -51 38 -130 5 -57 12 -75 28 -87 24 -17 17 -21 -50
-28 -44 -5 -52 0 -32 20 18 18 1 161 -21 183 -22 22 -56 16 -72 -13 -16 -31
-3 -159 18 -174 23 -17 14 -24 -41 -30 -43 -5 -61 6 -34 23 7 4 9 28 4 68 -11
116 -16 136 -32 136 -31 0 -5 25 30 28 29 3 37 0 37 -13 0 -14 4 -13 26 4 27
21 78 28 101 13z m-814 -199 c31 -100 55 -163 63 -163 7 0 15 -4 18 -9 7 -11
-93 -46 -102 -36 -4 4 -1 10 6 12 18 7 15 25 -30 176 -36 121 -45 140 -67 149
l-26 10 30 14 c17 7 36 12 44 11 9 -1 32 -61 64 -164z m-443 -153 c56 -122 78
-160 92 -160 28 0 22 -18 -13 -35 -28 -15 -32 -15 -43 0 -11 15 -13 14 -24 -9
-15 -32 -64 -58 -97 -50 -32 8 -80 62 -95 109 -23 71 7 131 78 156 27 9 32 15
26 33 -11 38 -33 64 -56 68 -20 3 -18 6 17 25 22 12 40 22 41 23 0 0 34 -72
74 -160z m286 106 c19 -19 34 -41 34 -49 0 -10 -26 -25 -74 -43 -81 -30 -88
-46 -38 -85 32 -25 68 -19 99 16 23 26 43 33 43 15 0 -6 -15 -26 -33 -46 -24
-26 -43 -37 -74 -41 -39 -5 -46 -2 -77 29 -38 38 -61 104 -51 147 6 28 47 74
75 84 36 13 64 5 96 -27z m2769 10 c50 -21 53 -49 16 -152 -25 -67 -29 -89
-20 -100 17 -21 6 -26 -30 -13 -23 8 -31 16 -28 28 4 15 -3 17 -47 13 -42 -3
-54 0 -70 17 -26 29 -24 71 5 94 20 16 34 18 90 13 63 -6 67 -5 73 17 10 37 7
46 -19 63 -23 15 -27 15 -49 0 -14 -9 -32 -13 -40 -10 -18 7 -18 7 -10 28 8
21 82 21 129 2z m242 -40 c-20 -53 -19 -56 17 -71 20 -9 36 -19 36 -23 0 -18
-13 -20 -47 -5 -20 8 -39 11 -43 6 -3 -4 -19 -36 -34 -71 -31 -70 -31 -105 -1
-110 11 -2 27 -5 35 -8 13 -4 13 -6 0 -14 -23 -15 -63 -12 -88 6 -30 21 -28
61 8 144 35 80 35 79 13 96 -17 12 -16 13 4 14 12 0 32 13 45 28 22 28 64 34
55 8z m203 -46 c16 -9 18 -14 8 -35 -9 -21 -14 -23 -32 -13 -29 15 -29 14 -16
37 12 24 15 25 40 11z m-60 -85 c17 -9 30 -18 30 -20 0 -3 -21 -46 -46 -97
-32 -63 -44 -98 -40 -114 8 -29 -3 -30 -54 -4 -42 21 -52 40 -22 40 13 0 31
26 62 89 37 76 41 92 31 105 -18 21 0 21 39 1z m-3733 -85 c62 -37 93 -146 57
-198 -21 -30 -66 -52 -108 -52 -46 0 -98 50 -115 113 -18 61 4 107 62 136 52
26 64 26 104 1z m-352 -41 c-11 -34 149 -265 187 -271 20 -3 18 -7 -24 -35
-55 -39 -62 -40 -53 -12 5 16 -10 45 -61 120 -37 54 -69 97 -71 95 -2 -2 9
-58 24 -125 32 -146 26 -159 -47 -107 -25 18 -76 55 -115 82 l-70 49 36 -50
c20 -27 55 -77 78 -110 29 -42 50 -62 69 -65 l27 -5 -40 -28 c-47 -32 -59 -34
-50 -7 10 30 -151 260 -182 260 -32 0 -28 11 16 42 l38 27 106 -74 c57 -41
107 -75 109 -75 3 0 -8 57 -25 127 l-30 126 34 28 c41 34 53 36 44 8z m4315 6
c61 -32 76 -93 40 -164 -38 -75 -103 -101 -170 -66 -61 31 -76 93 -41 163 39
77 103 102 171 67z m-1555 -24 c601 -89 1084 -265 1575 -575 261 -164 640
-477 640 -528 0 -11 5 -16 10 -13 6 4 10 -29 10 -92 l0 -98 -44 50 c-62 71
-274 261 -402 361 -439 341 -955 584 -1494 703 -588 130 -1182 119 -1765 -34
-729 -191 -1382 -596 -1884 -1170 -309 -353 -551 -767 -712 -1215 l-37 -105 3
201 c2 113 9 213 15 230 16 42 135 277 182 359 532 927 1426 1599 2460 1849
191 46 382 77 623 100 22 2 184 2 360 1 259 -3 346 -7 460 -24z m1785 -130 c0
-4 -5 -12 -11 -18 -7 -7 2 -10 32 -10 34 0 47 -6 67 -28 30 -36 24 -60 -35
-143 -34 -48 -43 -69 -39 -88 8 -30 5 -30 -44 2 -42 28 -51 44 -25 44 8 0 35
27 60 61 53 71 60 115 21 125 -42 10 -59 0 -103 -61 -30 -42 -41 -67 -38 -82
7 -29 3 -29 -45 3 -44 29 -51 44 -21 44 26 0 115 125 117 165 2 17 3 31 3 33
2 6 61 -39 61 -47z m278 -195 c15 -8 37 -25 50 -39 21 -22 22 -27 10 -46 -18
-29 -38 -26 -38 6 0 50 -52 82 -80 48 -10 -12 -8 -26 14 -74 31 -70 31 -71 5
-105 -33 -42 -79 -36 -137 19 l-47 44 21 22 c26 26 43 19 37 -15 -5 -24 28
-66 53 -66 11 0 44 26 44 35 0 2 -11 27 -25 57 -30 64 -31 82 -5 108 23 23 60
26 98 6z m-2455 -50 c99 -41 169 -88 247 -166 152 -153 178 -282 78 -395 -76
-86 -171 -119 -292 -101 -56 9 -85 31 -96 76 -10 38 -1 -472 9 -553 l6 -49 80
62 c44 35 83 66 87 69 4 3 -13 4 -37 3 -40 -4 -49 0 -81 32 -35 35 -36 38 -32
100 7 111 64 168 219 221 142 49 317 68 403 44 l39 -11 -6 -102 c-9 -160 -51
-294 -115 -367 -79 -90 -235 -117 -312 -53 -47 40 -42 82 18 146 70 77 31 47
-116 -86 l-132 -120 0 -67 0 -67 68 -7 c145 -14 282 -38 387 -67 308 -85 668
-284 868 -477 l57 -55 0 -68 c0 -37 -4 -68 -9 -68 -5 0 -12 -11 -15 -25 -4
-14 -18 -32 -32 -41 -43 -29 -68 -113 -28 -97 19 7 19 -33 0 -44 -8 -4 -18
-24 -23 -43 -9 -33 -12 -35 -54 -38 -42 -3 -45 -1 -72 43 -29 45 -41 53 -52
35 -3 -5 -21 -10 -39 -10 -29 0 -34 4 -40 31 -18 91 6 138 69 139 26 0 36 9
70 62 22 34 52 73 68 87 33 30 33 31 -96 129 -470 357 -1060 494 -1619 376
-396 -84 -721 -257 -998 -533 l-105 -104 113 107 112 106 31 -16 c31 -16 53
-15 168 2 l43 6 -6 -38 c-6 -35 -3 -43 28 -78 l36 -38 -20 -28 c-18 -25 -18
-29 -4 -41 13 -11 22 -10 52 7 30 16 36 24 34 46 -3 25 -2 26 40 22 41 -5 42
-4 19 9 -24 14 -24 15 -4 25 16 9 22 25 28 77 3 36 10 65 14 65 16 0 71 -22
71 -28 -1 -4 -11 -20 -24 -35 -27 -33 -24 -77 5 -84 14 -4 19 -15 19 -40 0
-33 1 -34 30 -28 26 6 30 4 30 -14 0 -17 6 -21 31 -21 30 0 30 1 27 47 -3 46
-3 46 -53 63 -41 14 -51 21 -53 43 -5 38 24 86 55 93 25 7 25 8 8 15 -11 4
-36 8 -56 8 -35 1 -41 7 -77 84 -8 16 53 -7 66 -25 11 -16 28 -18 128 -18 63
0 114 -2 114 -4 0 -3 -5 -17 -10 -31 -9 -25 -14 -27 -54 -23 -24 1 -42 0 -39
-4 2 -5 18 -8 34 -8 25 0 32 -6 41 -31 9 -27 14 -30 37 -25 14 4 43 9 64 13
36 5 37 5 37 -26 0 -27 3 -31 28 -31 15 0 36 -7 46 -15 11 -8 35 -15 53 -15
31 0 33 -2 33 -37 0 -42 23 -73 55 -73 12 0 32 -11 44 -24 l22 -23 -27 -32
-27 -32 -32 31 c-41 39 -60 22 -21 -19 32 -33 36 -81 7 -81 -11 0 -21 -5 -23
-11 -2 -7 -15 -9 -36 -4 -22 4 -42 20 -64 52 -31 42 -35 45 -70 40 -21 -3 -38
-2 -38 2 0 3 18 17 40 31 43 27 45 31 30 61 -14 25 -28 24 -32 -3 -2 -17 -10
-23 -28 -23 -21 0 -25 5 -28 30 -6 68 -10 75 -47 75 -34 0 -35 -1 -35 -37 0
-21 -3 -55 -6 -75 -6 -34 -8 -36 -38 -32 -51 8 -89 -9 -118 -52 -16 -24 -44
-48 -68 -59 -28 -13 -42 -26 -46 -44 -3 -14 -7 -35 -9 -45 -7 -32 14 -46 65
-46 45 0 48 -2 65 -40 17 -39 20 -40 66 -40 45 0 48 -2 54 -30 4 -16 15 -36
26 -44 13 -8 17 -19 13 -30 -5 -14 -2 -17 17 -14 35 5 37 41 3 63 -26 17 -27
18 -9 31 10 8 29 14 42 14 36 0 39 27 8 60 l-27 28 17 57 c9 32 14 64 10 72
-4 13 0 14 27 8 18 -4 45 -8 59 -9 15 -1 36 -9 46 -18 11 -10 27 -18 36 -18
13 0 17 -10 17 -45 0 -41 2 -45 25 -45 18 0 25 5 25 19 0 10 6 21 14 24 8 3
16 16 18 29 3 19 6 16 17 -19 8 -25 19 -39 26 -37 7 3 19 -14 29 -40 20 -51
42 -69 67 -55 13 6 18 4 22 -11 3 -12 14 -20 27 -20 22 0 22 -3 17 -52 -4 -29
-9 -63 -13 -75 -5 -20 -3 -23 20 -23 22 0 26 -4 26 -30 0 -28 -2 -30 -41 -30
-33 0 -70 11 -88 26 -2 1 7 17 19 33 l21 31 -44 0 c-52 0 -108 -23 -81 -34 12
-5 15 -14 10 -36 -5 -28 -4 -30 25 -30 32 0 69 -15 69 -28 0 -4 -21 -14 -47
-21 -27 -7 -58 -22 -70 -33 -21 -19 -25 -20 -40 -6 -34 29 -51 29 -73 -1 -11
-16 -20 -36 -20 -45 0 -12 -10 -16 -39 -16 -41 0 -51 -13 -51 -69 0 -13 -21
-58 -47 -100 -44 -70 -48 -82 -53 -154 l-5 -78 -42 31 c-32 24 -43 39 -43 59
0 19 -9 34 -30 50 -41 30 -74 25 -78 -11 -2 -16 -5 -28 -7 -28 -2 0 -20 9 -40
21 -33 20 -37 20 -60 5 -34 -22 -56 -68 -62 -130 -5 -47 -3 -53 27 -81 l31
-30 52 28 c29 15 65 30 80 33 l28 6 -7 -53 c-4 -30 -11 -60 -17 -66 -7 -10 2
-13 42 -13 l51 0 0 -51 c0 -70 23 -88 108 -89 47 0 62 -3 62 -14 0 -9 12 -16
33 -18 24 -2 31 -7 29 -20 -2 -15 5 -18 48 -18 44 0 50 2 50 21 0 32 21 10 49
-50 l23 -49 64 -4 c74 -5 101 -23 109 -77 10 -58 24 -85 38 -73 9 8 25 5 56
-9 26 -11 65 -19 98 -19 48 0 62 -5 104 -36 48 -35 49 -37 49 -89 0 -50 -2
-54 -34 -73 -31 -18 -35 -26 -41 -79 -3 -32 -7 -65 -8 -73 -1 -8 -12 -16 -24
-18 -16 -2 -25 -13 -31 -35 -6 -22 -16 -33 -37 -40 -50 -16 -103 -64 -110
-100 -4 -17 -31 -69 -61 -114 -51 -78 -56 -83 -89 -83 -33 0 -35 -2 -35 -35
l0 -35 -48 0 c-48 0 -49 -1 -65 -40 -13 -33 -20 -40 -44 -40 l-28 -1 28 -17
c34 -21 34 -28 -3 -47 -38 -20 -54 -50 -51 -99 1 -28 -4 -45 -20 -62 -21 -22
-21 -27 -9 -63 9 -28 21 -43 41 -52 18 -7 29 -19 29 -31 0 -17 -5 -20 -27 -15
-50 10 -103 37 -103 52 0 8 -6 15 -14 15 -16 0 -28 31 -51 133 -16 69 -14 87
9 87 10 0 11 12 4 57 -5 31 -11 60 -13 64 -9 14 17 114 40 154 17 30 26 68 34
149 18 177 16 203 -16 220 -39 20 -96 93 -118 149 -12 32 -33 61 -66 88 l-48
40 19 55 c22 63 55 114 74 114 14 0 26 50 26 112 0 27 6 41 22 52 26 18 27 17
-37 41 -27 10 -64 33 -82 50 -17 17 -47 36 -65 41 -23 7 -39 21 -53 47 -19 35
-23 37 -70 37 -59 0 -146 22 -182 45 -14 9 -38 46 -55 83 -41 90 -138 211
-138 172 0 -22 28 -76 49 -94 31 -28 26 -41 -7 -17 -36 25 -80 88 -93 132 -6
22 -23 44 -48 61 -85 61 -150 207 -137 313 5 47 3 54 -23 79 -23 22 -31 40
-36 86 -7 57 -8 59 -43 67 -33 8 -37 12 -40 44 -2 19 -14 48 -27 64 -23 28
-26 29 -39 12 -13 -16 -15 -16 -38 3 l-26 20 -48 -98 c-26 -53 -69 -155 -95
-227 l-48 -130 -1 143 0 142 55 110 c102 203 274 433 441 589 347 324 812 525
1287 557 l107 7 0 67 0 68 -132 119 c-73 65 -118 100 -100 78 77 -94 13 -183
-123 -173 -144 12 -231 106 -280 303 -20 80 -23 241 -5 259 7 7 54 11 133 10
216 -2 409 -70 474 -166 43 -66 50 -116 24 -172 -25 -50 -61 -70 -116 -64 -19
2 -32 1 -27 -2 4 -4 46 -36 93 -73 l85 -66 13 331 c7 181 10 332 7 336 -3 3
-6 -7 -6 -22 0 -79 -58 -120 -171 -119 -249 1 -362 232 -212 433 56 74 149
145 267 204 126 63 154 67 239 32z m2890 -1019 c718 -876 1017 -2013 826
-3137 -112 -655 -380 -1247 -805 -1780 -131 -165 -124 -163 -124 -40 l0 103
74 96 c423 553 676 1188 758 1906 17 146 17 607 0 760 -80 720 -357 1407 -784
1940 l-48 60 0 103 c0 65 4 101 10 97 5 -3 47 -52 93 -108z m-1083 -171 c294
-72 597 -409 627 -699 7 -69 12 -69 -82 2 -163 123 -305 276 -443 478 -22 32
-72 95 -111 139 -39 45 -71 84 -71 88 0 9 18 7 80 -8z m-3810 -32 c0 -4 -26
-35 -59 -69 -32 -34 -108 -137 -169 -228 -125 -185 -237 -310 -355 -399 -102
-75 -112 -75 -104 0 30 284 329 617 616 687 68 16 71 17 71 9z m4476 -300 c32
-19 76 -52 97 -72 81 -77 162 -219 199 -349 22 -74 23 -95 22 -376 0 -163 -4
-300 -7 -303 -4 -4 -43 27 -87 69 -44 42 -146 131 -228 198 -202 169 -230 194
-285 258 -84 97 -166 248 -183 338 -6 31 -1 27 82 -55 49 -49 124 -111 167
-138 157 -99 173 -110 239 -172 37 -35 84 -86 105 -113 21 -27 39 -46 41 -41
1 5 -13 76 -32 158 -19 82 -45 194 -57 249 -25 119 -64 221 -119 311 -22 36
-40 68 -40 70 0 12 33 0 86 -32z m-2492 9 c3 -10 44 -191 91 -402 63 -284 83
-394 79 -423 l-7 -38 -71 1 -71 0 -51 62 c-28 34 -59 77 -68 95 -10 20 -24 32
-36 32 -17 0 -20 7 -20 53 1 30 7 60 15 71 21 28 19 36 -9 36 -21 0 -24 5 -30
58 -4 32 -4 67 0 76 4 11 -3 38 -17 67 -20 41 -28 49 -53 49 -35 0 -106 54
-106 81 0 11 7 33 15 49 13 25 22 30 52 30 35 0 36 0 18 20 -17 19 -18 19 -75
-10 -31 -16 -64 -40 -74 -54 -11 -18 -25 -26 -46 -26 -26 0 -30 -4 -30 -27 0
-42 -14 -57 -44 -49 -25 6 -26 4 -26 -31 0 -52 -28 -71 -63 -43 -19 15 -44 20
-121 22 l-97 3 54 45 c30 25 63 50 73 57 18 11 18 12 -6 30 l-25 18 39 5 c22
3 41 11 44 18 3 9 -14 12 -64 12 -86 0 -76 12 39 45 200 58 356 82 559 84 113
1 127 -1 132 -16z m-2644 -30 c0 -3 -13 -29 -29 -57 -52 -94 -97 -237 -121
-393 -11 -71 -58 -285 -67 -310 -3 -8 39 30 93 85 70 70 137 124 231 186 96
63 152 108 208 169 l77 82 -8 -50 c-20 -139 -129 -314 -261 -418 -215 -171
-270 -217 -368 -317 l-110 -112 -7 54 c-15 122 -20 357 -9 465 25 244 83 394
196 508 72 74 175 137 175 108z m2992 -73 c21 0 28 -5 28 -20 0 -17 3 -19 19
-10 30 15 31 14 31 -39 0 -79 10 -111 36 -117 17 -4 24 -15 29 -46 6 -33 3
-44 -16 -65 -33 -35 -99 -86 -104 -81 -3 3 -23 85 -45 184 -22 98 -42 190 -45
202 -6 23 -5 23 17 8 12 -9 35 -16 50 -16z m-1197 -40 c3 -5 17 -10 31 -10 21
0 24 -5 24 -35 0 -35 0 -35 -46 -35 -49 0 -104 25 -104 48 0 7 15 19 33 27 39
17 54 18 62 5z m-176 -84 c9 -10 8 -16 -4 -26 -13 -11 -19 -10 -33 4 -15 15
-15 18 -2 26 20 13 26 12 39 -4z m51 -97 c0 -27 -24 -89 -34 -89 -16 1 -46 25
-46 38 0 6 -16 12 -35 14 -35 3 -35 4 -20 26 14 19 25 22 76 22 37 0 59 -4 59
-11z m-200 -14 c33 -17 33 -17 24 -39 -4 -11 -19 -16 -46 -16 -22 0 -48 -5
-59 -11 -11 -5 -37 -9 -57 -7 l-37 3 59 43 c66 47 74 49 116 27z m202 -110
c18 -23 17 -24 -18 -46 -36 -22 -37 -22 -71 -3 l-35 18 33 28 c41 34 68 35 91
3z m3916 -42 c140 -177 227 -531 192 -778 -7 -49 -21 -117 -30 -150 -17 -58
-174 -476 -190 -504 -5 -10 -31 32 -82 135 -92 184 -153 281 -278 449 -113
151 -151 215 -178 305 -20 67 -39 180 -29 180 3 0 34 -28 69 -63 34 -35 96
-89 136 -121 139 -110 236 -232 299 -376 l33 -75 0 50 c0 28 9 163 20 300 27
344 26 451 -5 643 -9 53 3 54 43 5z m-6073 -295 c0 -149 6 -302 12 -353 7 -49
15 -148 18 -220 9 -188 11 -193 44 -115 59 140 106 204 255 343 78 73 163 153
190 180 72 69 78 63 50 -47 -20 -82 -100 -243 -169 -341 -160 -230 -237 -354
-305 -492 -41 -84 -77 -152 -80 -152 -10 -1 -166 486 -201 629 -9 36 -14 112
-13 220 1 156 2 171 34 275 34 114 81 219 132 293 16 23 30 42 31 42 1 0 2
-118 2 -262z m4696 79 c371 -494 504 -1116 369 -1731 -64 -292 -223 -618 -417
-856 l-58 -71 -3 72 c-2 47 1 77 10 89 203 273 323 536 386 840 25 118 37 220
25 220 -4 0 -19 -16 -33 -34 -14 -19 -49 -48 -77 -66 -51 -30 -53 -33 -53 -73
0 -23 3 -66 6 -94 6 -43 10 -53 25 -53 22 0 23 -10 5 -70 -11 -38 -17 -45 -42
-48 -38 -5 -68 -34 -84 -81 -9 -28 -9 -43 -1 -59 16 -31 15 -32 -38 -32 l-48
0 7 -40 c6 -35 4 -43 -15 -58 -12 -10 -30 -33 -39 -51 -10 -18 -20 -30 -24
-27 -3 4 -17 -5 -31 -18 -24 -22 -32 -23 -104 -19 -72 5 -79 8 -88 30 -5 13
-9 35 -9 48 0 12 -7 25 -15 29 -11 4 -15 21 -15 64 0 32 -4 62 -9 68 -5 5 -23
35 -40 68 -34 65 -39 110 -15 137 13 15 15 30 9 84 l-7 65 -39 0 c-40 0 -48 7
-28 27 8 8 7 28 -5 74 -15 59 -14 63 4 89 22 31 18 40 -19 40 -13 0 -34 9 -46
20 -19 18 -28 19 -96 10 -81 -10 -189 -13 -189 -5 0 3 -25 117 -55 252 -30
136 -55 252 -55 259 0 6 8 14 19 17 12 3 21 17 25 41 10 52 41 69 142 74 81 4
83 5 86 31 l3 26 108 3 107 3 0 -31 c0 -22 5 -30 18 -30 9 0 23 -9 30 -20 7
-11 23 -20 37 -20 21 0 25 -5 25 -30 0 -29 2 -30 45 -30 43 0 45 1 45 30 0 25
4 30 24 30 35 0 56 -10 56 -26 0 -16 67 -19 117 -5 23 7 37 5 50 -5 10 -7 23
-13 28 -14 15 0 55 75 55 104 0 22 -5 26 -29 26 -22 0 -32 -6 -37 -22 l-7 -22
-17 22 c-10 12 -28 22 -41 22 -37 0 -59 28 -59 77 0 41 -1 43 -30 43 -25 0
-30 -4 -30 -25 0 -14 -7 -42 -16 -63 l-16 -37 -18 42 c-10 23 -27 46 -37 52
-16 8 -22 5 -37 -20 -25 -42 -66 -61 -105 -48 -42 15 -39 26 9 34 57 10 54 36
-7 66 -27 13 -53 34 -59 46 -10 20 -13 21 -30 8 -11 -8 -41 -15 -70 -15 -46 0
-52 -3 -58 -24 -4 -18 -15 -25 -42 -30 -30 -6 -34 -9 -23 -23 11 -12 10 -17
-5 -25 -10 -6 -27 -19 -37 -29 -14 -14 -33 -19 -73 -19 -63 0 -65 2 -73 108
l-6 72 82 0 c80 0 81 0 81 25 0 14 1 28 3 33 1 4 -20 22 -47 40 l-48 32 41 0
c23 0 55 7 70 15 34 17 121 100 121 115 0 5 16 10 36 10 l36 0 -7 46 c-5 34
-3 49 7 55 23 15 26 10 34 -47 l7 -56 92 4 c105 3 130 17 141 74 7 38 7 38 35
24 17 -10 19 -7 19 19 0 26 5 31 38 40 20 6 41 11 45 11 11 0 40 30 30 31 -4
0 -40 0 -80 -1 -69 -1 -73 0 -78 23 -12 46 -2 81 26 91 23 8 31 5 58 -25 l32
-34 -4 80 -4 79 30 -34 c16 -19 56 -70 88 -113z m1704 -744 c9 -49 19 -159 22
-246 12 -325 -46 -536 -202 -737 -36 -47 -120 -161 -186 -253 -67 -93 -123
-167 -125 -164 -2 2 -10 71 -18 153 -15 150 -36 241 -97 414 -50 142 -98 338
-119 490 -20 145 -26 280 -12 280 4 0 29 -46 55 -103 26 -56 77 -142 113 -192
140 -194 184 -326 185 -564 0 -159 12 -165 30 -16 18 156 66 310 142 462 81
159 167 439 167 539 0 14 6 24 14 24 9 0 19 -28 31 -87z m-6680 -80 c27 -149
69 -281 139 -431 89 -190 109 -240 147 -371 l34 -114 7 93 c14 171 65 320 167
479 26 42 76 127 111 189 41 75 66 110 72 104 18 -18 -20 -341 -58 -498 -18
-77 -41 -160 -49 -185 -42 -117 -81 -314 -113 -574 l-7 -59 -84 119 c-46 66
-126 168 -177 226 -112 129 -143 178 -183 291 -52 149 -65 241 -66 458 0 187
17 370 35 370 4 0 15 -44 25 -97z m5975 -860 c6 -54 25 -163 41 -242 45 -222
40 -396 -16 -611 -6 -24 -6 -24 16 4 72 92 223 263 356 403 160 169 220 251
285 389 21 46 43 84 48 84 6 0 10 -30 10 -67 -2 -412 -242 -766 -728 -1072
-130 -83 -281 -165 -288 -158 -3 3 11 55 30 116 48 149 83 353 90 536 10 234
26 381 52 490 33 134 65 225 80 225 7 0 16 -36 24 -97z m-5266 -1 c29 -86 56
-253 63 -376 l6 -121 -69 -197 -69 -198 -12 36 c-27 77 -46 213 -47 324 -1
102 5 142 49 347 28 128 53 233 57 233 3 0 14 -22 22 -48z m-708 -154 c75
-131 148 -223 346 -436 88 -95 189 -207 223 -248 l63 -76 -31 -87 c-17 -47
-32 -88 -34 -90 -10 -14 -242 170 -334 266 -180 186 -284 409 -303 648 -6 77
-3 125 9 125 2 0 29 -46 61 -102z m1494 -282 c55 -115 135 -247 213 -350 78
-104 279 -305 383 -383 213 -161 455 -278 714 -346 314 -83 669 -84 989 -2
349 89 710 297 933 538 l57 62 1 -72 0 -72 -84 -76 c-310 -284 -710 -466
-1146 -521 -160 -20 -438 -15 -590 11 -442 75 -827 272 -1139 583 -172 171
-300 350 -410 569 l-41 83 0 142 0 143 39 -110 c21 -60 58 -150 81 -199z
m4210 -169 c0 -17 -76 -418 -100 -532 -32 -147 -107 -310 -199 -434 -27 -36
-19 -35 34 4 98 70 293 181 473 268 242 116 302 156 437 290 54 55 101 95 103
89 10 -31 -62 -182 -148 -311 -175 -261 -446 -437 -805 -522 -157 -37 -425
-86 -430 -79 -2 4 25 53 60 109 108 168 125 210 244 584 60 188 142 341 264
493 41 51 67 67 67 41z m-4658 -157 c121 -185 177 -308 263 -580 41 -129 89
-225 192 -385 38 -61 73 -116 78 -124 18 -30 -228 6 -434 64 -191 53 -407 154
-511 236 l-32 26 33 95 33 94 80 -33 c163 -68 264 -119 384 -195 67 -42 121
-74 118 -70 -2 4 -46 77 -98 162 -104 170 -131 237 -152 380 -8 53 -28 176
-45 273 -18 98 -29 183 -25 188 10 17 44 -20 116 -131z m-1218 -275 c190 -456
485 -888 852 -1245 871 -849 2085 -1222 3284 -1009 595 106 1164 361 1652 740
121 94 357 308 396 358 l27 36 6 -95 6 -95 -41 -43 c-156 -167 -502 -428 -771
-582 -367 -211 -817 -376 -1232 -450 -272 -48 -345 -54 -693 -55 -342 0 -421
5 -665 46 -1003 167 -1901 725 -2504 1554 -131 180 -221 329 -327 540 l-95
190 -4 205 -4 205 38 -105 c21 -58 55 -145 75 -195z m1020 60 c13 -61 41 -159
61 -219 20 -59 34 -111 31 -113 -4 -5 -107 47 -202 103 l-31 18 56 162 c31 89
57 161 58 160 1 -1 13 -51 27 -111z m-532 -107 c53 -48 119 -103 148 -124 28
-20 49 -42 47 -48 -2 -6 -15 -39 -27 -74 l-23 -63 -25 23 c-29 27 -129 157
-159 208 -27 45 -93 176 -93 185 0 10 19 -5 132 -107z m4850 -295 c-22 -49
-43 -101 -47 -118 -12 -54 -48 -139 -78 -185 -63 -96 -138 -160 -292 -249 -89
-52 -90 -53 -45 -46 25 3 207 19 405 35 438 36 528 55 735 160 68 34 70 35 70
16 0 -33 -156 -180 -265 -251 -183 -119 -373 -176 -595 -176 -154 0 -222 11
-505 80 -132 33 -257 63 -277 67 -21 3 -38 10 -38 14 0 4 39 24 86 45 205 88
308 161 461 330 60 66 136 143 169 171 114 99 247 204 252 199 3 -2 -13 -44
-36 -92z m-3657 13 c33 -27 148 -136 255 -241 222 -216 306 -280 499 -378 75
-37 136 -74 136 -80 0 -13 -373 -108 -545 -138 -185 -33 -402 -32 -530 0 -196
50 -381 163 -521 316 -60 65 -84 105 -63 105 3 0 36 -18 73 -40 153 -91 280
-122 591 -145 118 -9 288 -22 378 -29 89 -6 162 -11 162 -9 0 1 -35 27 -78 57
-113 79 -246 222 -314 336 -64 108 -142 285 -133 300 8 13 16 8 90 -54z m1667
-707 c111 -23 152 -22 298 7 103 19 350 22 464 4 109 -16 253 -68 415 -149
154 -77 284 -122 420 -147 129 -23 241 -15 411 29 74 19 137 33 140 30 8 -8
-103 -108 -168 -151 -138 -94 -240 -124 -422 -125 -272 -1 -550 106 -795 308
-111 90 -247 144 -333 130 -15 -2 -44 -7 -65 -10 l-39 -6 88 -50 c181 -105
421 -279 579 -422 l50 -45 -55 -57 c-70 -71 -82 -69 -180 34 -181 190 -499
441 -606 478 -37 12 -53 13 -92 4 -101 -25 -362 -222 -582 -438 -85 -83 -159
-149 -165 -145 -29 17 -105 87 -105 96 0 17 143 154 255 243 107 85 271 193
399 263 l79 43 -39 12 c-25 7 -62 9 -100 5 -123 -15 -159 -33 -354 -170 -312
-220 -521 -297 -785 -288 -188 7 -321 53 -480 166 -85 60 -122 95 -108 99 6 2
57 -9 114 -24 95 -25 119 -28 269 -27 217 0 295 20 564 138 217 96 434 169
556 187 83 12 257 2 372 -22z m2551 -911 c-2 -13 10 -81 26 -151 37 -152 38
-190 11 -217 -24 -24 -33 -25 -50 -5 -13 15 -8 29 11 31 5 1 14 2 19 3 6 0 10
19 10 41 0 40 -1 41 -87 97 -48 30 -100 61 -115 68 l-29 12 35 26 c41 32 56
34 49 8 -4 -15 9 -29 56 -60 33 -23 62 -41 65 -41 2 0 1 15 -4 33 -5 17 -14
51 -20 75 -8 31 -16 42 -30 42 -27 0 -25 10 8 37 35 29 50 29 45 1z m-4533
-318 l5 -144 52 91 c36 64 50 98 46 113 l-6 22 41 -23 c46 -26 53 -39 23 -39
-15 0 -40 -34 -97 -130 -42 -72 -82 -129 -88 -127 -14 5 -27 138 -24 245 2 45
2 82 2 82 -1 0 -28 -45 -59 -101 -35 -62 -55 -108 -52 -120 7 -25 -7 -24 -51
3 -36 22 -36 22 -12 28 34 8 163 224 155 259 l-6 23 33 -19 33 -19 5 -144z
m4228 159 l13 -20 34 21 c24 15 35 17 41 9 4 -6 1 -15 -7 -20 -56 -32 -56 -31
-8 -100 48 -70 80 -85 99 -49 6 11 15 18 20 15 16 -10 -19 -65 -47 -76 -36
-13 -60 5 -113 86 -30 46 -46 63 -54 55 -18 -18 -21 -11 -19 43 2 62 0 57 16
57 7 0 18 -9 25 -21z m-151 -49 c11 -17 10 -21 -8 -30 -17 -9 -23 -8 -34 7 -9
13 -10 22 -3 30 15 19 31 16 45 -7z m88 -145 c33 -56 55 -85 67 -85 28 0 21
-16 -16 -39 -42 -26 -46 -26 -46 1 0 36 -78 158 -100 158 -11 0 -20 4 -20 9 0
10 40 40 55 40 6 0 32 -38 60 -84z m-155 -33 c0 -10 -8 -12 -30 -7 -47 10 -72
-2 -68 -33 3 -26 6 -27 68 -30 52 -2 69 -7 83 -23 36 -44 11 -92 -67 -124 -34
-15 -41 -15 -54 -2 -8 9 -12 23 -9 31 5 13 11 14 32 4 49 -22 98 25 63 60 -7
7 -38 12 -69 12 -65 0 -89 16 -89 59 0 32 30 63 80 85 32 13 36 13 48 -1 6 -9
12 -23 12 -31z m-3724 -61 c23 -11 43 -28 46 -39 4 -12 -9 -54 -28 -99 -21
-47 -32 -87 -29 -100 5 -21 4 -22 -27 -8 -19 8 -32 20 -30 28 2 11 -9 14 -40
14 -69 0 -101 60 -57 104 18 18 28 20 68 15 84 -13 85 -12 95 16 7 19 6 31 -4
42 -14 18 -55 21 -65 6 -4 -7 -13 -6 -26 1 -16 8 -18 13 -8 25 16 19 56 17
105 -5z m3522 -16 c17 -36 16 -38 -16 -32 -35 7 -49 -1 -56 -33 -7 -32 41
-131 71 -145 21 -11 20 -12 -23 -33 -55 -27 -56 -27 -49 1 4 15 -6 50 -28 99
-27 60 -40 77 -59 80 -22 3 -21 5 11 22 32 17 35 17 47 1 11 -15 13 -15 19 4
6 20 50 61 65 61 4 0 12 -11 18 -25z m-3358 -61 c39 -16 53 -34 26 -34 -15 0
-26 -49 -26 -120 l0 -44 46 44 c58 57 69 77 53 96 -16 19 1 18 46 -3 36 -17
46 -33 20 -33 -9 0 -53 -36 -99 -80 -51 -49 -89 -78 -98 -75 -11 5 -14 32 -14
135 1 72 2 130 3 130 2 0 21 -7 43 -16z m3143 -75 c16 -17 27 -35 25 -41 -2
-6 -34 -23 -71 -37 -37 -14 -67 -29 -67 -32 0 -21 45 -59 69 -59 28 0 71 32
71 52 0 9 3 9 11 1 30 -30 -37 -93 -99 -93 -43 0 -85 43 -100 100 -12 49 -6
77 22 109 44 49 93 49 139 0z m-2879 -29 c16 -6 24 -15 20 -23 -4 -11 5 -13
44 -9 53 5 64 -2 55 -36 -6 -24 -43 -31 -43 -8 0 19 -28 28 -50 16 -19 -10
-60 -105 -60 -138 0 -10 6 -24 13 -31 10 -11 7 -12 -15 -7 -15 3 -39 11 -53
16 -25 9 -25 10 -6 29 26 26 64 146 57 176 -7 27 0 30 38 15z m2334 -27 c3
-19 -1 -23 -22 -23 -21 0 -26 5 -26 26 0 21 4 25 23 22 14 -2 23 -11 25 -25z
m307 10 c-3 -10 -12 -66 -19 -124 -13 -107 -20 -129 -36 -129 -5 0 -40 41 -79
90 -40 50 -76 90 -81 90 -26 0 -5 20 35 33 l45 16 -6 -24 c-5 -19 4 -39 39
-85 l44 -60 7 52 c10 91 8 108 -16 117 l-23 9 25 10 c49 18 55 20 64 21 4 1 5
-7 1 -16z m-1901 -58 c-1 -5 -5 -39 -9 -73 -7 -62 -7 -64 13 -53 32 17 77 13
96 -8 16 -17 17 -32 11 -115 -5 -69 -4 -96 4 -96 6 0 11 -5 11 -11 0 -7 -16
-8 -47 -3 -58 8 -62 11 -38 27 14 11 18 29 19 98 1 83 1 84 -25 87 -40 5 -59
-26 -66 -107 -4 -50 -3 -71 6 -71 6 0 11 -5 11 -11 0 -7 -16 -8 -47 -3 -57 8
-61 11 -41 27 11 8 21 50 32 127 19 132 20 180 6 180 -5 0 -10 5 -10 11 0 6
16 9 38 7 20 -2 36 -7 36 -13z m-436 -21 c27 -18 28 -50 6 -124 -9 -30 -14
-69 -11 -87 6 -32 5 -33 -21 -27 -38 9 -42 13 -36 29 5 11 0 12 -29 3 -26 -8
-41 -7 -63 3 -25 12 -29 20 -29 54 0 51 28 68 103 61 l52 -5 0 40 c0 33 -4 40
-26 45 -14 4 -30 2 -37 -5 -6 -6 -21 -11 -33 -11 -17 0 -21 4 -17 20 5 17 14
20 62 20 35 0 65 -6 79 -16z m1612 8 c0 -4 -5 -13 -11 -19 -7 -7 -7 -45 2
-131 11 -110 11 -123 -5 -147 -38 -57 -128 -71 -176 -27 -28 25 -31 35 -46
147 -11 86 -20 124 -31 132 -21 16 -18 19 40 26 46 7 57 1 37 -19 -12 -12 2
-167 21 -236 11 -41 38 -55 84 -44 39 10 47 44 35 145 -16 134 -20 151 -35
151 -29 0 -14 19 18 23 59 7 67 7 67 -1z m460 -94 c15 -60 30 -99 43 -109 19
-16 19 -16 -13 -28 -18 -6 -42 -11 -53 -11 -16 0 -17 3 -7 15 13 15 11 26 -21
148 -6 24 -18 41 -32 47 l-22 8 25 10 c51 21 55 17 80 -80z m-183 25 c7 -9 20
-50 29 -92 9 -42 23 -82 32 -88 20 -16 16 -19 -33 -27 l-40 -7 -1 63 c-1 69
-25 138 -47 138 -8 0 -25 -9 -38 -19 -23 -18 -23 -21 -12 -86 6 -37 19 -75 28
-85 19 -21 14 -25 -37 -34 -37 -7 -47 0 -29 20 16 15 -21 171 -44 188 -19 14
-18 15 15 23 27 8 37 7 43 -4 8 -12 13 -11 30 5 39 35 79 37 104 5z m-1623 3
c29 -12 33 -18 29 -40 -7 -32 -31 -34 -42 -2 -20 50 -72 39 -97 -19 -19 -45
-18 -100 2 -119 17 -18 69 -22 79 -6 7 11 25 4 25 -9 0 -13 -48 -31 -81 -31
-44 0 -89 48 -89 95 0 76 53 145 112 145 16 0 44 -6 62 -14z m453 -75 c-5 -19
-4 -19 33 0 29 15 43 17 63 10 37 -14 40 -25 38 -128 -1 -59 2 -93 9 -93 5 0
10 -4 10 -10 0 -12 -87 -13 -94 -1 -3 5 0 11 8 14 20 8 33 151 16 172 -18 22
-57 18 -74 -7 -18 -25 -23 -158 -6 -158 6 0 10 -4 10 -10 0 -11 -83 -14 -93
-3 -4 3 0 11 7 17 9 7 17 43 21 98 6 75 4 89 -9 94 -30 11 -16 24 25 24 36 0
41 -3 36 -19z m389 -5 c16 -12 20 -29 22 -103 3 -61 9 -93 20 -105 14 -17 13
-18 -21 -18 -25 0 -37 5 -37 14 0 10 -9 9 -40 -6 -45 -23 -73 -18 -97 18 -13
20 -14 30 -4 50 12 27 65 54 106 54 20 0 25 5 25 24 0 41 -11 56 -41 56 -17 0
-34 -8 -43 -21 -9 -13 -21 -19 -30 -16 -28 11 -17 34 22 50 47 20 93 21 118 3z"/>
<path d="M13894 23758 c-30 -14 -44 -50 -44 -113 0 -78 40 -109 89 -67 36 30
47 182 12 182 -5 0 -15 2 -23 4 -7 3 -23 0 -34 -6z"/>
<path d="M13602 23793 c-11 -4 -42 -54 -42 -68 0 -3 25 -5 55 -5 52 0 55 2 55
24 0 40 -32 64 -68 49z"/>
<path d="M11622 23424 c-29 -20 -29 -76 1 -128 27 -49 46 -61 81 -52 42 10 53
47 31 98 -42 95 -68 114 -113 82z"/>
<path d="M11916 23544 c-19 -19 -22 -88 -3 -80 6 2 29 10 50 17 41 13 45 24
21 57 -18 26 -46 28 -68 6z"/>
<path d="M14657 23433 c-15 -14 -6 -53 14 -63 41 -23 100 16 85 56 -6 14 -86
21 -99 7z"/>
<path d="M11332 23278 c-31 -31 4 -130 61 -172 26 -19 30 -19 55 -5 48 26 37
95 -26 162 -27 29 -69 36 -90 15z"/>
<path d="M15338 23249 c-26 -15 -69 -94 -70 -128 -2 -56 42 -79 90 -45 48 34
80 142 50 172 -14 14 -47 15 -70 1z"/>
<path d="M13352 22435 c0 -16 2 -22 5 -12 2 9 2 23 0 30 -3 6 -5 -1 -5 -18z"/>
<path d="M13383 22410 c0 -25 2 -35 4 -22 2 12 2 32 0 45 -2 12 -4 2 -4 -23z"/>
<path d="M12965 21920 c10 -11 20 -20 23 -20 3 0 -3 9 -13 20 -10 11 -20 20
-23 20 -3 0 3 -9 13 -20z"/>
<path d="M14760 20795 c19 -19 36 -35 39 -35 3 0 -10 16 -29 35 -19 19 -36 35
-39 35 -3 0 10 -16 29 -35z"/>
<path d="M12510 20755 c0 -9 5 -15 11 -13 6 2 11 8 11 13 0 5 -5 11 -11 13 -6
2 -11 -4 -11 -13z"/>
<path d="M11799 20673 l-24 -28 28 24 c25 23 32 31 24 31 -2 0 -14 -12 -28
-27z"/>
<path d="M11754 20618 l-19 -23 23 19 c21 18 27 26 19 26 -2 0 -12 -10 -23
-22z"/>
<path d="M14615 20116 c14 -19 39 -39 56 -45 16 -5 29 -15 29 -20 0 -6 7 -8
15 -4 14 5 14 8 -2 26 -27 30 -94 77 -110 77 -10 0 -6 -11 12 -34z"/>
<path d="M11387 15423 c-4 -3 -7 -17 -7 -29 0 -43 82 -45 96 -2 4 13 1 24 -7
29 -17 10 -73 12 -82 2z"/>
<path d="M14718 15389 c-12 -6 -18 -22 -18 -44 0 -41 -2 -40 50 -19 44 18 50
32 22 57 -21 19 -30 20 -54 6z"/>
<path d="M12109 15134 c-28 -34 35 -71 72 -42 10 7 20 23 24 36 6 20 3 22 -38
22 -28 0 -49 -6 -58 -16z"/>
<path d="M13270 14997 c-37 -19 -35 -61 3 -65 37 -4 57 13 57 49 0 33 -18 37
-60 16z"/>
<path d="M17234 13897 c-10 -18 -55 -97 -102 -177 -150 -256 -219 -418 -229
-541 -5 -56 -2 -75 16 -111 33 -68 80 -90 207 -96 56 -3 113 -2 126 1 l24 6
-38 78 c-97 196 -87 375 37 711 25 68 43 127 40 132 -3 4 -18 13 -35 18 -28
10 -31 9 -46 -21z"/>
<path d="M10560 13565 c0 -8 12 -17 28 -20 116 -24 163 -54 196 -124 21 -45
21 -54 21 -681 l0 -635 -25 -44 c-37 -65 -86 -100 -159 -114 -36 -7 -61 -17
-61 -24 0 -10 60 -13 280 -13 242 0 280 2 280 15 0 9 -9 15 -23 15 -13 0 -46
7 -74 15 -60 18 -125 82 -144 141 -18 56 -24 1257 -6 1232 6 -10 147 -332 312
-715 190 -442 306 -699 315 -701 12 -2 94 182 325 724 l310 727 3 -604 c2
-658 1 -673 -54 -739 -33 -39 -91 -69 -149 -77 -28 -3 -45 -11 -45 -19 0 -12
67 -14 390 -14 323 0 390 2 390 14 0 8 -17 16 -45 19 -66 9 -141 51 -170 95
-13 21 -29 62 -35 91 -14 77 -13 1145 1 1229 19 105 89 167 212 187 23 4 37
11 34 18 -3 9 -71 13 -253 15 l-250 2 -258 -617 c-143 -340 -267 -633 -276
-652 l-16 -33 -264 651 -264 651 -263 0 c-226 0 -263 -2 -263 -15z"/>
<path d="M12870 13566 c0 -8 13 -17 30 -20 17 -3 43 -9 59 -12 45 -8 108 -59
132 -106 32 -62 38 -178 39 -704 0 -445 1 -476 20 -538 20 -62 69 -140 114
-178 47 -40 148 -89 227 -110 73 -19 109 -22 274 -22 164 0 201 3 269 22 142
39 280 133 326 222 42 82 43 96 49 680 l6 565 28 58 c29 59 79 99 140 111 15
3 38 8 52 11 14 3 25 12 25 20 0 13 -39 15 -280 15 -238 0 -280 -2 -280 -15 0
-9 14 -16 38 -20 106 -17 179 -73 204 -157 10 -33 13 -170 13 -593 0 -635 1
-624 -85 -718 -86 -94 -233 -154 -402 -164 -220 -13 -351 55 -429 221 -44 95
-52 215 -46 759 3 348 7 471 17 500 29 83 99 135 203 152 23 4 37 11 37 20 0
13 -55 15 -390 15 -330 0 -390 -2 -390 -14z"/>
<path d="M14870 13566 c0 -16 13 -21 77 -31 55 -9 117 -54 145 -107 l23 -43 3
-610 c2 -439 0 -625 -8 -664 -21 -95 -117 -171 -217 -171 -14 0 -23 -6 -23
-15 0 -13 38 -15 280 -15 242 0 280 2 280 15 0 9 -9 15 -23 15 -50 0 -121 30
-159 67 -71 70 -71 63 -75 743 -4 597 -4 605 15 585 10 -11 270 -336 577 -722
501 -631 561 -703 586 -703 l28 0 3 728 c3 675 4 730 21 767 35 78 100 125
195 140 26 4 41 12 39 18 -5 17 -559 17 -564 0 -3 -7 11 -14 34 -18 102 -18
161 -58 197 -135 20 -44 21 -62 24 -570 3 -452 1 -523 -11 -510 -8 8 -232 293
-497 633 l-483 617 -234 0 c-196 0 -233 -2 -233 -14z"/>
<path d="M18240 13561 c-252 -53 -461 -224 -535 -437 -128 -368 61 -752 388
-790 92 -11 305 50 293 83 -3 8 -6 17 -6 19 0 2 -19 4 -43 4 -148 0 -301 92
-396 239 -55 86 -75 164 -75 291 0 151 34 260 117 368 183 240 533 263 746 49
205 -205 254 -492 141 -829 -91 -272 -353 -671 -705 -1073 -137 -157 -373
-401 -493 -510 -76 -68 -111 -107 -111 -122 l-1 -23 774 0 774 0 17 72 c9 39
43 184 76 321 32 137 59 253 59 257 0 4 -9 10 -19 13 -16 4 -24 -6 -46 -61
-70 -174 -168 -258 -331 -282 -38 -5 -258 -10 -489 -9 l-420 0 45 40 c25 22
164 141 310 263 146 123 319 273 385 333 386 354 575 691 575 1028 0 228 -70
405 -221 555 -98 98 -236 171 -379 200 -124 26 -311 26 -430 1z"/>
<path d="M20180 13560 c-209 -56 -377 -193 -426 -348 -23 -74 -16 -211 14
-268 62 -121 201 -182 353 -155 38 7 71 16 74 21 10 17 -7 37 -47 55 -53 23
-108 79 -138 140 -21 44 -24 64 -24 160 -1 129 16 175 88 253 114 122 309 151
472 72 123 -60 243 -224 289 -395 25 -93 30 -275 11 -365 -23 -108 -73 -205
-145 -283 -72 -77 -127 -111 -209 -132 -55 -14 -67 -14 -134 1 -126 28 -196
29 -248 2 -111 -57 -100 -196 17 -227 58 -16 127 6 224 70 73 47 88 54 145 57
217 14 410 -253 431 -595 14 -227 -61 -459 -194 -603 -72 -78 -134 -121 -219
-152 -81 -29 -263 -32 -344 -4 -99 33 -168 77 -233 145 -71 76 -112 153 -133
249 -34 163 0 293 106 402 61 63 63 86 5 82 -107 -8 -207 -64 -275 -154 -131
-174 -95 -439 81 -602 235 -218 720 -259 1064 -91 209 103 347 255 416 460 56
166 59 339 9 491 -65 193 -239 342 -500 424 l-54 17 74 35 c206 96 340 226
402 393 19 51 22 81 22 205 1 127 -2 153 -22 208 -72 201 -240 347 -477 418
-76 22 -114 27 -245 30 -132 4 -166 1 -230 -16z"/>
<path d="M5550 13451 c0 -5 14 -12 30 -15 17 -3 43 -8 59 -12 44 -8 107 -68
128 -122 17 -44 18 -89 18 -622 l0 -575 -25 -50 c-32 -64 -87 -103 -158 -112
-34 -4 -52 -10 -52 -19 0 -12 48 -14 266 -14 208 0 265 3 262 13 -3 6 -15 13
-29 15 -61 8 -103 26 -140 59 -69 63 -70 64 -67 694 l3 554 530 -667 c465
-585 533 -667 557 -668 l27 0 3 678 c3 626 4 680 21 717 33 73 90 116 175 130
101 17 27 25 -223 25 -146 0 -265 -4 -265 -9 0 -4 26 -14 58 -20 73 -14 126
-50 154 -104 23 -41 23 -50 26 -422 1 -209 1 -431 0 -494 l-3 -114 -455 582
-455 581 -222 0 c-129 0 -223 -4 -223 -9z"/>
<path d="M7390 13286 c0 -9 18 -16 50 -20 36 -5 60 -16 87 -39 69 -60 67 -49
73 -582 l5 -480 33 -67 c66 -135 184 -198 407 -218 244 -21 481 52 564 175 54
80 55 83 61 600 6 533 3 510 74 573 26 22 50 33 86 38 32 4 50 11 50 20 0 12
-43 14 -236 14 -183 0 -235 -3 -232 -12 3 -7 23 -16 46 -20 80 -13 128 -53
154 -126 19 -54 19 -915 -1 -990 -37 -147 -239 -252 -460 -240 -108 6 -176 34
-231 94 -93 101 -103 170 -98 712 3 375 4 410 22 442 36 68 74 96 148 108 23
4 43 13 46 20 3 9 -68 12 -322 12 -270 0 -326 -2 -326 -14z"/>
<path d="M8970 13285 c0 -11 11 -15 38 -15 50 -1 112 -30 145 -69 42 -51 82
-143 295 -691 110 -283 208 -534 217 -557 13 -33 23 -43 39 -43 20 0 46 57
256 563 128 309 246 588 262 620 51 102 137 176 206 177 13 0 22 6 22 15 0 13
-32 15 -225 15 -184 0 -225 -3 -225 -14 0 -8 16 -15 41 -19 50 -7 73 -27 95
-83 19 -50 15 -97 -15 -190 -21 -62 -302 -760 -319 -789 -9 -18 -4 -31 -229
585 -100 274 -114 320 -110 359 7 63 56 107 126 117 33 4 51 11 51 20 0 12
-58 14 -335 14 -291 0 -335 -2 -335 -15z"/>
<path d="M7225 11176 c-124 -54 -137 -256 -23 -326 50 -30 178 -26 178 6 0 10
-14 12 -64 7 -50 -4 -70 -2 -93 12 -44 26 -64 67 -64 131 0 105 58 159 164
151 42 -4 57 -2 57 8 0 26 -103 34 -155 11z"/>
<path d="M10334 11180 c-47 -19 -70 -94 -41 -133 6 -9 40 -30 75 -47 77 -37
96 -67 65 -108 -18 -23 -27 -27 -69 -26 -27 1 -59 4 -71 9 -17 5 -23 3 -23 -7
0 -21 44 -38 100 -38 61 0 98 28 107 82 8 53 -16 84 -92 118 -48 22 -66 35
-71 54 -13 55 37 88 107 69 29 -7 39 -7 43 2 10 27 -81 45 -130 25z"/>
<path d="M11850 11168 c-58 -30 -85 -82 -85 -163 0 -105 62 -175 157 -175 104
0 168 68 168 180 0 142 -118 220 -240 158z m151 -31 c70 -47 78 -180 14 -244
-28 -28 -40 -33 -80 -33 -58 0 -100 23 -121 68 -20 43 -20 122 1 162 35 67
123 90 186 47z"/>
<path d="M16020 11168 c-58 -30 -84 -80 -84 -163 0 -72 22 -118 74 -152 42
-29 120 -31 170 -4 109 58 106 272 -4 322 -55 25 -102 24 -156 -3z m151 -31
c76 -51 79 -197 4 -255 -20 -16 -42 -22 -76 -22 -42 0 -55 5 -86 34 -34 31
-37 39 -41 98 -5 77 12 119 61 148 43 27 96 25 138 -3z"/>
<path d="M16750 11183 c-36 -13 -60 -47 -60 -85 0 -47 21 -70 95 -103 70 -31
88 -63 58 -103 -18 -23 -27 -27 -69 -26 -27 1 -59 4 -71 9 -33 11 -30 -18 2
-33 32 -15 110 -16 136 -2 30 16 52 68 45 105 -8 40 -27 58 -91 85 -27 11 -56
28 -62 37 -44 57 40 119 109 82 16 -9 23 -8 29 2 16 26 -74 49 -121 32z"/>
<path d="M5600 11005 c0 -147 2 -175 15 -175 12 0 15 25 17 147 l3 148 103
-148 c57 -81 110 -147 117 -147 13 0 15 29 15 175 0 149 -2 175 -15 175 -13 0
-15 -22 -15 -141 0 -77 -4 -138 -8 -135 -5 3 -51 66 -103 140 -59 86 -100 136
-111 136 -17 0 -18 -15 -18 -175z"/>
<path d="M6057 11173 c-15 -25 -128 -336 -123 -340 13 -13 32 9 49 56 l18 51
74 0 74 0 18 -51 c17 -48 36 -69 50 -56 3 3 -23 83 -58 176 -48 128 -68 171
-81 171 -9 0 -19 -3 -21 -7z m57 -140 c13 -34 21 -65 18 -68 -7 -7 -107 -7
-114 0 -3 3 9 44 26 90 26 73 32 82 39 63 5 -13 19 -51 31 -85z"/>
<path d="M6235 11088 c18 -51 46 -129 62 -173 18 -47 36 -81 45 -83 11 -2 26
26 56 105 22 59 52 138 66 176 24 61 24 67 8 67 -14 0 -30 -33 -71 -146 -35
-94 -57 -141 -62 -133 -4 8 -29 73 -55 146 -37 106 -50 133 -65 133 -17 0 -15
-8 16 -92z"/>
<path d="M6550 11004 c0 -136 3 -175 13 -172 8 3 13 30 15 76 l3 72 34 0 c39
0 57 -19 94 -98 16 -35 30 -52 43 -52 10 0 18 3 18 6 0 10 -61 117 -77 136
-13 15 -11 20 18 46 28 25 34 37 34 72 0 34 -6 47 -28 66 -24 20 -39 24 -98
24 l-69 0 0 -176z m140 131 c12 -11 20 -31 20 -50 0 -42 -28 -66 -85 -72 l-45
-6 0 78 0 78 45 -6 c25 -2 55 -13 65 -22z"/>
<path d="M6919 11153 c-85 -223 -119 -316 -115 -321 14 -13 36 12 51 58 l17
51 76 -3 75 -3 17 -50 c10 -30 24 -51 33 -53 10 -2 17 0 17 5 0 4 -28 83 -62
176 -49 130 -67 167 -81 167 -10 0 -22 -12 -28 -27z m60 -101 c17 -46 31 -85
31 -88 0 -2 -27 -4 -60 -4 -41 0 -60 4 -60 13 0 13 53 167 57 164 1 -1 16 -40
32 -85z"/>
<path d="M7460 11004 c0 -136 3 -175 13 -172 8 3 13 32 15 86 l3 82 94 0 95 0
0 -85 c0 -69 3 -85 15 -85 13 0 15 26 15 175 0 149 -2 175 -15 175 -12 0 -15
-15 -15 -75 l0 -75 -95 0 -95 0 0 75 c0 60 -3 75 -15 75 -13 0 -15 -26 -15
-176z"/>
<path d="M7802 11008 c2 -126 6 -172 16 -176 9 -3 12 30 12 142 0 80 3 146 8
146 4 -1 52 -66 107 -145 54 -80 105 -145 112 -145 10 0 13 38 13 175 0 147
-2 175 -15 175 -12 0 -15 -25 -17 -141 l-3 -141 -98 141 c-135 194 -138 193
-135 -31z"/>
<path d="M8222 11073 c-97 -253 -94 -243 -74 -243 12 0 24 17 37 53 l21 52 74
0 75 0 19 -52 c13 -38 24 -53 37 -53 17 0 16 6 -11 80 -43 116 -87 232 -95
253 -4 9 -15 17 -25 17 -12 0 -28 -28 -58 -107z m91 -21 c15 -43 27 -81 27
-85 0 -4 -27 -7 -60 -7 -33 0 -60 3 -60 8 0 13 55 162 60 162 3 0 17 -35 33
-78z"/>
<path d="M8620 11045 c0 -83 5 -144 12 -160 34 -75 181 -73 218 2 8 17 15 78
18 161 4 117 2 132 -12 132 -14 0 -16 -15 -16 -102 -1 -123 -11 -177 -41 -200
-28 -24 -91 -23 -120 1 -23 18 -24 26 -27 160 -3 114 -6 141 -18 141 -11 0
-14 -25 -14 -135z"/>
<path d="M8952 11009 c2 -125 6 -173 15 -176 9 -3 13 33 15 148 l3 152 105
-151 c66 -95 111 -151 120 -149 13 2 15 31 18 175 2 166 2 172 -17 172 -19 0
-21 -8 -23 -140 l-3 -140 -96 137 c-67 97 -102 139 -117 141 l-22 3 2 -172z"/>
<path d="M9320 11005 c0 -149 2 -175 15 -175 13 0 15 26 15 175 0 149 -2 175
-15 175 -13 0 -15 -26 -15 -175z"/>
<path d="M9410 11173 c0 -5 27 -83 60 -173 33 -90 60 -165 60 -168 0 -2 7 -2
16 0 11 2 38 60 80 172 36 93 62 171 60 174 -16 15 -36 -20 -80 -139 -27 -74
-52 -138 -56 -142 -4 -4 -29 56 -57 135 -34 99 -55 144 -66 146 -10 2 -17 -1
-17 -5z"/>
<path d="M9750 11005 l0 -176 87 3 c58 2 88 7 91 16 3 9 -16 12 -72 12 l-76 0
0 70 0 70 65 0 c37 0 65 4 65 10 0 6 -28 10 -65 10 l-65 0 0 70 0 70 70 0 c40
0 70 4 70 10 0 6 -35 10 -85 10 l-85 0 0 -175z"/>
<path d="M10000 11005 c0 -149 2 -175 15 -175 12 0 15 15 15 76 l0 75 43 -3
c41 -3 43 -4 80 -75 28 -53 43 -73 58 -73 18 0 18 3 -7 53 -14 28 -37 67 -51
85 -18 24 -20 32 -9 32 26 0 56 50 56 92 0 28 -7 46 -25 63 -21 22 -33 25
-100 25 l-75 0 0 -175z m153 124 c46 -56 -12 -129 -94 -117 -22 3 -24 9 -27
62 -4 85 -1 90 56 82 30 -4 53 -13 65 -27z"/>
<path d="M10550 11005 c0 -149 2 -175 15 -175 13 0 15 26 15 175 0 149 -2 175
-15 175 -13 0 -15 -26 -15 -175z"/>
<path d="M10640 11170 c0 -5 23 -10 50 -10 l50 0 0 -165 c0 -139 2 -165 15
-165 12 0 15 27 17 163 l3 162 48 3 c26 2 47 7 47 13 0 5 -49 9 -115 9 -70 0
-115 -4 -115 -10z"/>
<path d="M10965 11070 c50 -99 55 -116 55 -175 0 -51 3 -65 15 -65 12 0 15 14
15 69 0 65 4 77 56 175 48 91 53 106 37 106 -14 0 -31 -24 -63 -91 l-45 -90
-45 90 c-31 64 -50 91 -62 91 -15 0 -9 -18 37 -110z"/>
<path d="M11350 11006 c0 -148 2 -176 15 -176 12 0 15 25 17 143 l3 142 65
-142 c35 -79 67 -143 71 -143 4 0 35 63 70 141 l64 140 3 -140 c2 -116 5 -141
17 -141 13 0 15 28 15 175 0 163 -1 175 -18 175 -14 0 -34 -35 -85 -147 -59
-133 -67 -145 -76 -123 -5 14 -34 79 -64 145 -42 92 -60 121 -76 123 -21 3
-21 1 -21 -172z"/>
<path d="M12162 11008 l3 -173 30 -3 c53 -6 133 9 166 31 51 34 73 80 73 151
-1 120 -54 166 -194 166 l-80 0 2 -172z m179 127 c38 -20 59 -63 59 -120 0
-97 -50 -147 -149 -149 l-56 -1 -3 134 c-1 74 0 141 3 149 7 18 102 9 146 -13z"/>
<path d="M12510 11005 l0 -176 87 3 c58 2 88 7 91 16 3 9 -16 12 -72 12 l-76
0 0 70 0 70 65 0 c37 0 65 4 65 10 0 6 -28 10 -65 10 l-65 0 0 70 0 70 70 0
c40 0 70 4 70 10 0 6 -35 10 -85 10 l-85 0 0 -175z"/>
<path d="M12760 11005 l0 -175 85 0 c69 0 85 3 85 15 0 12 -14 15 -70 15 l-70
0 0 160 c0 136 -2 160 -15 160 -13 0 -15 -26 -15 -175z"/>
<path d="M13122 11048 c3 -86 9 -143 18 -161 18 -37 58 -57 116 -57 39 0 51 5
80 34 l34 34 0 141 c0 119 -2 141 -15 141 -13 0 -15 -22 -15 -135 0 -131 -1
-137 -25 -160 -17 -18 -35 -25 -63 -25 -80 0 -101 46 -102 218 0 87 -2 102
-16 102 -14 0 -15 -16 -12 -132z"/>
<path d="M13460 11005 c0 -149 2 -175 15 -175 13 0 15 23 15 145 0 80 3 145 8
145 4 -1 52 -66 107 -145 54 -80 105 -145 112 -145 10 0 13 38 13 175 0 147
-2 175 -15 175 -12 0 -15 -25 -17 -141 l-3 -141 -98 141 c-135 194 -137 193
-137 -34z"/>
<path d="M13830 11004 c0 -136 3 -175 13 -172 9 4 13 50 15 176 2 149 0 172
-13 172 -13 0 -15 -25 -15 -176z"/>
<path d="M13920 11171 c0 -6 21 -11 48 -13 l47 -3 3 -162 c2 -136 5 -163 17
-163 13 0 15 26 15 165 l0 165 50 0 c28 0 50 5 50 10 0 6 -45 10 -115 10 -66
0 -115 -4 -115 -9z"/>
<path d="M14210 11005 l0 -176 87 3 c58 2 88 7 91 16 3 9 -16 12 -73 12 l-76
0 3 68 3 67 63 3 c34 2 62 7 62 12 0 5 -28 10 -62 12 l-63 3 0 65 0 65 68 3
c97 4 83 22 -18 22 l-85 0 0 -175z"/>
<path d="M14462 11008 l3 -173 30 -3 c53 -6 133 9 167 31 97 65 95 248 -3 297
-29 15 -59 20 -119 20 l-80 0 2 -172z m179 127 c82 -43 79 -195 -6 -251 -16
-10 -48 -17 -83 -18 l-57 -1 -3 134 c-1 74 0 141 3 149 7 18 102 9 146 -13z"/>
<path d="M14940 11005 c0 -148 2 -175 15 -175 12 0 15 26 17 150 l3 149 104
-149 c58 -83 111 -150 118 -150 10 0 13 37 13 175 0 147 -2 175 -15 175 -12 0
-15 -25 -17 -142 l-3 -141 -99 141 c-135 193 -136 193 -136 -33z"/>
<path d="M15395 11163 c-4 -10 -31 -81 -60 -158 -29 -77 -57 -148 -60 -157 -5
-13 -2 -18 9 -18 10 0 26 21 41 55 l24 56 72 -3 72 -3 20 -52 c11 -29 26 -53
33 -53 8 0 14 5 14 12 0 6 -28 85 -61 175 -48 126 -66 163 -79 163 -10 0 -21
-8 -25 -17z m54 -108 c17 -44 31 -83 31 -87 0 -10 -120 -10 -120 0 -1 9 54
172 57 169 1 -1 16 -38 32 -82z"/>
<path d="M15540 11171 c0 -6 21 -11 48 -13 l47 -3 3 -162 c2 -136 5 -163 17
-163 13 0 15 26 15 165 l0 165 50 0 c28 0 50 5 50 10 0 6 -45 10 -115 10 -66
0 -115 -4 -115 -9z"/>
<path d="M15830 11005 c0 -149 2 -175 15 -175 13 0 15 26 15 175 0 149 -2 175
-15 175 -13 0 -15 -26 -15 -175z"/>
<path d="M16332 11008 c3 -146 5 -173 18 -173 12 0 16 25 20 142 l5 142 94
-134 c51 -74 100 -140 107 -146 29 -24 34 3 34 172 0 144 -2 169 -15 169 -13
0 -15 -22 -15 -140 0 -77 -3 -140 -7 -140 -5 0 -51 62 -103 138 -68 98 -102
138 -118 140 l-22 3 2 -173z"/>
</g>
</svg>
