<svg width="120" height="120" viewBox="0 0 120 120" fill="none" xmlns="http://www.w3.org/2000/svg">
<rect width="120" height="120" rx="60" fill="#B7121C"/>
<path fill-rule="evenodd" clip-rule="evenodd" d="M88.7892 19.0973L58.9475 46.7256L51.0287 38.609C49.5699 37.2896 47.2776 37.2096 45.6105 38.3292C43.985 39.4887 43.5266 41.5278 44.5268 43.1671L53.9045 57.8009C54.8214 59.1603 56.4052 60 58.1973 60C59.9061 60 61.5316 59.1603 62.4485 57.8009C63.9489 55.9217 92.5819 23.1756 92.5819 23.1756C96.333 19.4971 91.79 16.2585 88.7892 19.0573V19.0973Z" fill="#E38181"/>
<path fill-rule="evenodd" clip-rule="evenodd" d="M88.7892 19.0973L58.9475 46.7256L51.0287 38.609C49.5699 37.2896 47.2776 37.2096 45.6105 38.3292C43.985 39.4887 43.5266 41.5278 44.5268 43.1671L53.9045 57.8009C54.8214 59.1603 56.4052 60 58.1973 60C59.9061 60 61.5316 59.1603 62.4485 57.8009C63.9489 55.9217 92.5819 23.1756 92.5819 23.1756C96.333 19.4971 91.79 16.2585 88.7892 19.0573V19.0973Z" fill="#E38181"/>
<path fill-rule="evenodd" clip-rule="evenodd" d="M27.9602 92.9626L58.3524 66.693L66.6157 74.1745C68.1356 75.3883 70.4985 75.4307 72.2018 74.3598C73.8617 73.252 74.3079 71.3378 73.2562 69.8183L63.4063 56.2602C62.4441 55.0014 60.8015 54.2382 58.955 54.2636C57.1943 54.2877 55.5303 55.0962 54.6031 56.381C53.0812 58.1603 24 89.2008 24 89.2008C20.1824 92.6952 24.9047 95.6608 27.9607 93L27.9602 92.9626Z" fill="#E38181"/>
<path fill-rule="evenodd" clip-rule="evenodd" d="M27.9602 92.9626L58.3524 66.693L66.6157 74.1745C68.1356 75.3883 70.4985 75.4307 72.2018 74.3598C73.8617 73.252 74.3079 71.3378 73.2562 69.8183L63.4063 56.2602C62.4441 55.0014 60.8015 54.2382 58.955 54.2636C57.1943 54.2877 55.5303 55.0962 54.6031 56.381C53.0812 58.1603 24 89.2008 24 89.2008C20.1824 92.6952 24.9047 95.6608 27.9607 93L27.9602 92.9626Z" fill="#E38181"/>
</svg>
