<svg width="120" height="151" viewBox="0 0 120 151" fill="none" xmlns="http://www.w3.org/2000/svg">
<g filter="url(#filter0_i_556_867)">
<path fill-rule="evenodd" clip-rule="evenodd" d="M95.007 5.99012e-08H24.9928L24.993 0.0228411C24.993 0.0228411 23.693 -0.0285513 22.862 0.0228411C22.1543 0.0666112 21.7589 0.12401 21.0561 0.230122L21.0134 0.236577C20.203 0.358922 19.7334 0.429822 18.9253 0.644685C18.4513 0.770656 18.1433 0.876974 17.7493 1.01296C17.6332 1.05303 17.5097 1.09568 17.3722 1.14216C17.2165 1.19481 17.0771 1.24058 16.9463 1.28355C16.5413 1.41652 16.2182 1.5226 15.747 1.72255C15.1433 1.97869 14.7831 2.1746 14.2587 2.45989L14.2584 2.46005L14.2563 2.46124C14.1793 2.50311 14.0987 2.54692 14.0133 2.59313C13.2831 2.98841 12.8723 3.2109 12.1714 3.671C11.4446 4.14811 11.0502 4.44437 10.3655 4.99759C9.83038 5.43002 9.53851 5.6866 9.02921 6.15836C8.50775 6.64139 8.21946 6.91943 7.729 7.44351C7.27642 7.92713 7.03232 8.21087 6.60939 8.72866C6.26088 9.15532 6.06956 9.39946 5.74257 9.84797C5.4081 10.3068 5.21987 10.5941 4.92917 11.038L4.83965 11.1746C4.7839 11.2596 4.7316 11.3391 4.68186 11.4146C4.39571 11.8492 4.19409 12.1555 3.90063 12.667C3.60129 13.1888 3.44649 13.4915 3.17828 14.0351C3.10252 14.1886 3.03281 14.3285 2.96722 14.4602C2.68839 15.0198 2.48387 15.4303 2.20313 16.1079C1.99773 16.6036 1.87909 16.954 1.73064 17.3925C1.68703 17.5213 1.64085 17.6577 1.58914 17.8076C1.18201 18.9879 1.03056 19.6925 0.768433 20.9119L0.758454 20.9583C0.490046 22.2068 0.358037 22.9162 0.2167 24.1918C0.0740722 25.4792 0 27.84 0 27.84V92.16C0 92.16 0.0740722 94.5208 0.2167 95.8082C0.358037 97.0838 0.490046 97.7932 0.758454 99.0417L0.768433 99.0881C1.03056 100.307 1.18201 101.012 1.58914 102.192C1.64084 102.342 1.68702 102.479 1.73062 102.608L1.73067 102.608C1.87911 103.046 1.99775 103.396 2.20313 103.892C2.48387 104.57 2.68838 104.98 2.96721 105.54L2.96737 105.54L2.96934 105.544L2.97226 105.55C3.03638 105.679 3.10445 105.815 3.17828 105.965C3.44649 106.509 3.60129 106.811 3.90063 107.333C4.19411 107.845 4.39573 108.151 4.68193 108.585C4.73164 108.661 4.78392 108.74 4.83965 108.825C4.87066 108.873 4.90042 108.918 4.92919 108.962C5.21989 109.406 5.4081 109.693 5.74257 110.152C6.06956 110.601 6.26088 110.845 6.60939 111.271C7.03232 111.789 7.27642 112.073 7.729 112.556C8.21946 113.08 8.50775 113.359 9.02921 113.842C9.53851 114.313 9.83038 114.57 10.3655 115.002C11.0502 115.556 11.4446 115.852 12.1714 116.329C12.8723 116.789 13.2831 117.012 14.0133 117.407C14.0405 117.422 14.0672 117.436 14.0934 117.45C14.1495 117.481 14.2034 117.51 14.2558 117.539L14.2588 117.54H14.2589L14.2592 117.54C14.7834 117.825 15.1435 118.021 15.747 118.277C16.2181 118.477 16.5412 118.583 16.9462 118.716C17.0771 118.759 17.2165 118.805 17.3722 118.858C17.5092 118.904 17.6324 118.947 17.7481 118.987L17.7494 118.987L17.7498 118.987C18.1436 119.123 18.4517 119.229 18.9253 119.355C19.7334 119.57 20.203 119.641 21.0134 119.763L21.0561 119.77C21.7589 119.876 22.1543 119.933 22.862 119.977C23.693 120.028 24.993 119.977 24.993 119.977L24.9928 120H95.007V119.977C95.007 119.977 96.307 120.028 97.138 119.977C97.8457 119.933 98.2411 119.876 98.9439 119.77L98.9866 119.763C99.797 119.641 100.267 119.57 101.075 119.355C101.549 119.229 101.857 119.123 102.251 118.987C102.367 118.947 102.49 118.904 102.628 118.858C102.784 118.805 102.923 118.759 103.054 118.716C103.459 118.583 103.782 118.477 104.253 118.277C104.857 118.021 105.217 117.825 105.741 117.54L105.793 117.512L105.889 117.46C105.921 117.443 105.953 117.425 105.987 117.407C106.717 117.012 107.128 116.789 107.829 116.329C108.555 115.852 108.95 115.556 109.635 115.002C110.17 114.57 110.461 114.313 110.971 113.842C111.492 113.359 111.781 113.08 112.271 112.556C112.724 112.073 112.968 111.789 113.391 111.271C113.739 110.845 113.931 110.601 114.257 110.152C114.592 109.693 114.78 109.406 115.071 108.963L115.071 108.962C115.1 108.918 115.129 108.873 115.16 108.825C115.216 108.74 115.268 108.661 115.318 108.585L115.319 108.585C115.604 108.15 115.806 107.844 116.099 107.333C116.399 106.811 116.553 106.509 116.822 105.965C116.84 105.927 116.858 105.891 116.876 105.855C116.891 105.825 116.906 105.795 116.92 105.766C116.958 105.69 116.994 105.617 117.029 105.547L117.033 105.54C117.312 104.98 117.516 104.57 117.797 103.892C118.002 103.396 118.121 103.046 118.269 102.608C118.313 102.479 118.359 102.342 118.411 102.192C118.818 101.012 118.969 100.308 119.231 99.0883L119.232 99.0881L119.241 99.0417C119.51 97.7932 119.642 97.0838 119.783 95.8082C119.926 94.5208 120 92.16 120 92.16V27.84C120 27.84 119.926 25.4792 119.783 24.1918C119.642 22.9162 119.51 22.2068 119.241 20.9583L119.232 20.9119L119.231 20.9117C118.969 19.6924 118.818 18.9879 118.411 17.8076C118.359 17.6584 118.313 17.5227 118.27 17.3945L118.269 17.3923L118.269 17.392C118.121 16.9537 118.002 16.6034 117.797 16.1079C117.516 15.4304 117.312 15.0199 117.033 14.4603V14.4601C116.967 14.3285 116.898 14.1886 116.822 14.0351C116.553 13.4915 116.399 13.1888 116.099 12.667C115.806 12.1555 115.604 11.8492 115.318 11.4146C115.268 11.3391 115.216 11.2596 115.16 11.1746L115.071 11.038L115.071 11.0377L115.071 11.0375L115.07 11.0373C114.78 10.5939 114.592 10.3066 114.257 9.84797C113.931 9.39946 113.739 9.15532 113.391 8.72866C112.968 8.21087 112.724 7.92713 112.271 7.44351C111.781 6.91943 111.492 6.64139 110.971 6.15836C110.461 5.6866 110.17 5.43002 109.635 4.99759C108.95 4.44437 108.555 4.14811 107.829 3.671C107.128 3.2109 106.717 2.98841 105.987 2.59313C105.904 2.54844 105.826 2.50599 105.751 2.46536L105.745 2.46167L105.743 2.46099L105.741 2.45986L105.741 2.4598C105.217 2.17456 104.857 1.97866 104.253 1.72255C103.782 1.5226 103.459 1.41652 103.054 1.28355C102.923 1.24058 102.784 1.19481 102.628 1.14216C102.491 1.09598 102.368 1.05358 102.253 1.01374L102.252 1.01329L102.251 1.01297C101.857 0.876982 101.549 0.77066 101.075 0.644685C100.267 0.429822 99.797 0.358922 98.9866 0.236577L98.9439 0.230122C98.2411 0.12401 97.8457 0.0666112 97.138 0.0228411C96.307 -0.0285513 95.007 0.0228411 95.007 0.0228411V5.99012e-08Z" fill="url(#paint0_linear_556_867)"/>
</g>
<g filter="url(#filter1_i_556_867)">
<path fill-rule="evenodd" clip-rule="evenodd" d="M82.5711 53.6919V105.952L98.1501 97.1865V53.9714V53.6919V34.2328V34.1422L89.9828 25.593H85.7616H65.7363H61.515L53.3478 34.1422L53.3477 38.1896V50.5767C53.3477 50.5767 53.4881 50.9918 54.1269 51.3239C55.827 52.2078 64.17 55.1852 65.7591 55.4748C67.4591 55.7847 67.6031 54.8804 67.6031 54.8804V42.0044C67.6153 41.9759 67.6286 41.9476 67.6431 41.92C67.6533 41.9009 67.6629 41.8822 67.6726 41.864C67.8261 41.5708 67.9234 41.3852 68.1798 41.1166C68.4555 40.8277 68.6747 40.6928 69.0295 40.4746L69.0743 40.4471C69.3136 40.2998 69.6834 40.1727 70.0085 40.0792H80.0734C80.3985 40.1727 80.7684 40.2998 81.0077 40.4471L81.0524 40.4746C81.4072 40.6928 81.6265 40.8277 81.9021 41.1166C82.1586 41.3852 82.2558 41.5708 82.4093 41.864L82.4389 41.92C82.6047 42.2358 82.6169 42.6268 82.6176 42.7083V42.7235L82.6178 42.7212V53.6919H82.5711ZM82.6176 42.7083L82.6178 40.0792V42.7115L82.6176 42.7083Z" fill="white"/>
<g filter="url(#filter2_i_556_867)">
<path d="M90.4121 95.8287H95.0265V94.1567H92.2139L90.4121 95.8287Z" fill="url(#paint1_linear_556_867)"/>
<path d="M86.6328 95.8287H88.6984L95.0265 89.9158V89.5488H86.6328V91.18H91.1593L86.6328 95.3802V95.8287Z" fill="url(#paint2_linear_556_867)"/>
<path d="M92.1702 87.9178H86.6328V86.2867H91.3352C91.3352 86.2867 91.594 86.2804 91.7307 86.2459C91.9035 86.2023 91.9635 86.1932 92.1261 86.1235C92.2732 86.0607 92.3522 86.0146 92.4777 85.9197C92.6378 85.7986 92.7476 85.705 92.8732 85.5527C92.9862 85.4159 93.0159 85.3425 93.0929 85.1857C93.1811 85.0065 93.2017 84.933 93.2248 84.7371C93.2436 84.5789 93.2461 84.3651 93.2248 84.2071C93.2006 84.0269 93.2036 84.0108 93.137 83.8401C93.0793 83.6926 93.0521 83.6053 92.9611 83.4732C92.876 83.3494 92.8094 83.2914 92.6975 83.1877C92.5855 83.0838 92.5198 83.0268 92.3898 82.943C92.2762 82.8698 92.2073 82.8347 92.0822 82.7798C91.9497 82.7218 91.8732 82.6896 91.7307 82.6575C91.5962 82.6273 91.3791 82.6167 91.3791 82.6167H86.6328V80.9856H92.1702C92.1702 80.9856 92.6679 81.0382 92.9611 81.1488C93.1603 81.224 93.2722 81.2741 93.4445 81.3934C93.6197 81.5147 93.7336 81.6135 93.884 81.7604C94.0431 81.9157 94.0959 81.9975 94.2356 82.1682C94.4171 82.3901 94.5009 82.5289 94.6311 82.7798C94.7582 83.025 94.8179 83.1698 94.8947 83.4323C94.9768 83.7128 95.0033 83.8765 95.0265 84.1663C95.0457 84.4045 95.0531 84.5404 95.0265 84.7779C95.0068 84.9551 95.021 85.0113 94.9827 85.1857C94.9368 85.3939 94.8779 85.5547 94.807 85.7565C94.7068 86.0411 94.6194 86.1923 94.4554 86.4499C94.3049 86.6857 94.2086 86.8131 94.0159 87.0207C93.8575 87.1913 93.768 87.2902 93.5763 87.4285C93.358 87.5861 93.2183 87.6597 92.9611 87.7546C92.6672 87.8633 92.1702 87.9178 92.1702 87.9178Z" fill="url(#paint3_linear_556_867)"/>
<path d="M86.6328 77.3157V79.3952L92.0823 76.6224L90.0607 75.5623L86.6328 77.3157Z" fill="url(#paint4_linear_556_867)"/>
<path d="M86.6328 70.4243V72.5039L93.3127 75.9699L95.0265 75.1136V74.706L86.6328 70.4243Z" fill="url(#paint5_linear_556_867)"/>
</g>
</g>
<g filter="url(#filter3_i_556_867)">
<path fill-rule="evenodd" clip-rule="evenodd" d="M37.2509 66.2299V13.9702L21.6719 22.7352V65.9503V66.2299V79.8426V85.7795L29.8392 94.3289H34.0604H54.0857H58.307L66.4743 85.7795V79.8426L66.4741 69.3451C66.4741 69.3451 66.3339 68.9301 65.695 68.598C63.995 67.714 55.6519 64.7365 54.0629 64.4469C52.3629 64.1372 52.2189 65.0415 52.2189 65.0415V77.9175C52.2067 77.946 52.1934 77.9741 52.1789 78.0017C52.1687 78.0209 52.159 78.0397 52.1494 78.058C51.9959 78.351 51.8986 78.5365 51.6421 78.8052C51.3665 79.0943 51.1473 79.2289 50.7925 79.4473L50.7477 79.4747C50.5084 79.6221 50.1386 79.7492 49.8135 79.8426H39.7485C39.4235 79.7492 39.0536 79.6221 38.8143 79.4747L38.7695 79.4473C38.4147 79.2289 38.1955 79.0941 37.9199 78.8052C37.6634 78.5365 37.5661 78.351 37.4127 78.058L37.3831 78.0017C37.2172 77.6861 37.2051 77.295 37.2044 77.2137V77.1984L37.2042 77.2002V66.2299H37.2509ZM37.2044 77.2137L37.2042 79.8426V77.2108L37.2044 77.2137Z" fill="white"/>
</g>
<path d="M8.15839 146.399V137.104H9.02939V141.121H14.2944V137.104H15.1654V146.399H14.2944V141.849H9.02939V146.399H8.15839ZM17.4013 146.399L20.9113 137.104H21.8993L25.4353 146.399H24.4993L23.4203 143.474H19.3773L18.2853 146.399H17.4013ZM19.6373 142.759H23.1603L21.8863 139.288L21.4183 137.936H21.3923C21.2276 138.465 21.076 138.916 20.9373 139.288L19.6373 142.759ZM30.97 146.568C29.6874 146.568 28.669 146.126 27.915 145.242C27.161 144.358 26.784 143.197 26.784 141.758C26.784 140.328 27.1654 139.163 27.928 138.261C28.6907 137.36 29.7177 136.909 31.009 136.909C31.9797 136.909 32.777 137.161 33.401 137.663C34.0337 138.166 34.428 138.855 34.584 139.73H33.726C33.596 139.106 33.2927 138.608 32.816 138.235C32.3394 137.854 31.7327 137.663 30.996 137.663C29.9474 137.663 29.1327 138.049 28.552 138.82C27.98 139.583 27.694 140.562 27.694 141.758C27.694 142.954 27.98 143.929 28.552 144.683C29.1327 145.429 29.943 145.801 30.983 145.801C31.841 145.801 32.5214 145.541 33.024 145.021C33.5267 144.501 33.817 143.834 33.895 143.019H34.74C34.688 143.999 34.3674 144.809 33.778 145.45C33.1107 146.196 32.1747 146.568 30.97 146.568ZM37.2459 146.399V137.104H38.1169V142.057L43.1349 137.104H44.2659L40.3789 140.887L44.4999 146.399H43.4599L39.7809 141.485L38.1169 143.123V146.399H37.2459ZM49.7185 146.568C48.4358 146.568 47.4175 146.126 46.6635 145.242C45.9095 144.358 45.5325 143.197 45.5325 141.758C45.5325 140.328 45.9138 139.163 46.6765 138.261C47.4391 137.36 48.4661 136.909 49.7575 136.909C50.7281 136.909 51.5255 137.161 52.1495 137.663C52.7821 138.166 53.1765 138.855 53.3325 139.73H52.4745C52.3445 139.106 52.0411 138.608 51.5645 138.235C51.0878 137.854 50.4811 137.663 49.7445 137.663C48.6958 137.663 47.8811 138.049 47.3005 138.82C46.7285 139.583 46.4425 140.562 46.4425 141.758C46.4425 142.954 46.7285 143.929 47.3005 144.683C47.8811 145.429 48.6915 145.801 49.7315 145.801C50.5895 145.801 51.2698 145.541 51.7725 145.021C52.2751 144.501 52.5655 143.834 52.6435 143.019H53.4885C53.4365 143.999 53.1158 144.809 52.5265 145.45C51.8591 146.196 50.9231 146.568 49.7185 146.568ZM55.9943 146.399V137.104H56.8653V145.593H61.8183V146.399H55.9943ZM67.21 146.542C66.1613 146.542 65.3336 146.287 64.727 145.775C64.129 145.255 63.83 144.48 63.83 143.448V137.104H64.701V143.37C64.701 144.982 65.5503 145.788 67.249 145.788C68.939 145.788 69.784 144.982 69.784 143.37V137.104H70.655V143.448C70.655 144.488 70.343 145.264 69.719 145.775C69.1036 146.287 68.2673 146.542 67.21 146.542ZM73.4986 146.399V137.104H77.3596C78.2003 137.104 78.859 137.33 79.3356 137.78C79.7863 138.188 80.0116 138.742 80.0116 139.444C80.0116 140.458 79.5393 141.13 78.5946 141.459V141.498C79.1493 141.654 79.587 141.927 79.9076 142.317C80.237 142.699 80.4016 143.188 80.4016 143.786C80.4016 144.532 80.1763 145.138 79.7256 145.606C79.2143 146.135 78.482 146.399 77.5286 146.399H73.4986ZM74.3696 145.606H77.4766C78.1526 145.606 78.677 145.429 79.0496 145.073C79.3616 144.761 79.5176 144.337 79.5176 143.799C79.5176 143.219 79.3313 142.764 78.9586 142.434C78.5946 142.105 78.1006 141.94 77.4766 141.94H74.3696V145.606ZM74.3696 141.186H77.3466C77.91 141.186 78.3476 141.035 78.6596 140.731C78.9716 140.428 79.1276 140.021 79.1276 139.509C79.1276 138.989 78.9716 138.586 78.6596 138.3C78.3476 138.014 77.9186 137.871 77.3726 137.871H74.3696V141.186ZM86.1533 146.399V137.104H87.1023L91.3793 143.63C91.518 143.838 91.6653 144.072 91.8213 144.332C91.9773 144.584 92.0986 144.787 92.1853 144.943L92.3023 145.164H92.3283V137.104H93.1603V146.399H92.2503L87.9863 139.951L87.0113 138.378H86.9853V146.399H86.1533ZM99.4002 146.542C98.3515 146.542 97.5239 146.287 96.9172 145.775C96.3192 145.255 96.0202 144.48 96.0202 143.448V137.104H96.8912V143.37C96.8912 144.982 97.7405 145.788 99.4392 145.788C101.129 145.788 101.974 144.982 101.974 143.37V137.104H102.845V143.448C102.845 144.488 102.533 145.264 101.909 145.775C101.294 146.287 100.458 146.542 99.4002 146.542ZM108.289 146.399L104.961 137.104H105.871L108.276 143.968L108.77 145.502H108.796C108.995 144.835 109.164 144.311 109.303 143.929L111.721 137.104H112.605L109.238 146.399H108.289Z" fill="white"/>
<defs>
<filter id="filter0_i_556_867" x="0" y="0" width="123" height="126" filterUnits="userSpaceOnUse" color-interpolation-filters="sRGB">
<feFlood flood-opacity="0" result="BackgroundImageFix"/>
<feBlend mode="normal" in="SourceGraphic" in2="BackgroundImageFix" result="shape"/>
<feColorMatrix in="SourceAlpha" type="matrix" values="0 0 0 0 0 0 0 0 0 0 0 0 0 0 0 0 0 0 127 0" result="hardAlpha"/>
<feOffset dx="3" dy="6"/>
<feGaussianBlur stdDeviation="5"/>
<feComposite in2="hardAlpha" operator="arithmetic" k2="-1" k3="1"/>
<feColorMatrix type="matrix" values="0 0 0 0 0 0 0 0 0 0 0 0 0 0 0 0 0 0 0.4 0"/>
<feBlend mode="normal" in2="shape" result="effect1_innerShadow_556_867"/>
</filter>
<filter id="filter1_i_556_867" x="53.3477" y="25.593" width="48.8027" height="90.3586" filterUnits="userSpaceOnUse" color-interpolation-filters="sRGB">
<feFlood flood-opacity="0" result="BackgroundImageFix"/>
<feBlend mode="normal" in="SourceGraphic" in2="BackgroundImageFix" result="shape"/>
<feColorMatrix in="SourceAlpha" type="matrix" values="0 0 0 0 0 0 0 0 0 0 0 0 0 0 0 0 0 0 127 0" result="hardAlpha"/>
<feOffset dx="4" dy="10"/>
<feGaussianBlur stdDeviation="6"/>
<feComposite in2="hardAlpha" operator="arithmetic" k2="-1" k3="1"/>
<feColorMatrix type="matrix" values="0 0 0 0 0 0 0 0 0 0 0 0 0 0 0 0 0 0 0.7 0"/>
<feBlend mode="normal" in2="shape" result="effect1_innerShadow_556_867"/>
</filter>
<filter id="filter2_i_556_867" x="86.6328" y="70.4243" width="12.4102" height="30.4043" filterUnits="userSpaceOnUse" color-interpolation-filters="sRGB">
<feFlood flood-opacity="0" result="BackgroundImageFix"/>
<feBlend mode="normal" in="SourceGraphic" in2="BackgroundImageFix" result="shape"/>
<feColorMatrix in="SourceAlpha" type="matrix" values="0 0 0 0 0 0 0 0 0 0 0 0 0 0 0 0 0 0 127 0" result="hardAlpha"/>
<feOffset dx="4" dy="5"/>
<feGaussianBlur stdDeviation="3"/>
<feComposite in2="hardAlpha" operator="arithmetic" k2="-1" k3="1"/>
<feColorMatrix type="matrix" values="0 0 0 0 0 0 0 0 0 0 0 0 0 0 0 0 0 0 0.4 0"/>
<feBlend mode="normal" in2="shape" result="effect1_innerShadow_556_867"/>
</filter>
<filter id="filter3_i_556_867" x="21.6719" y="13.9702" width="48.8027" height="90.3586" filterUnits="userSpaceOnUse" color-interpolation-filters="sRGB">
<feFlood flood-opacity="0" result="BackgroundImageFix"/>
<feBlend mode="normal" in="SourceGraphic" in2="BackgroundImageFix" result="shape"/>
<feColorMatrix in="SourceAlpha" type="matrix" values="0 0 0 0 0 0 0 0 0 0 0 0 0 0 0 0 0 0 127 0" result="hardAlpha"/>
<feOffset dx="4" dy="10"/>
<feGaussianBlur stdDeviation="6"/>
<feComposite in2="hardAlpha" operator="arithmetic" k2="-1" k3="1"/>
<feColorMatrix type="matrix" values="0 0 0 0 0 0 0 0 0 0 0 0 0 0 0 0 0 0 0.7 0"/>
<feBlend mode="normal" in2="shape" result="effect1_innerShadow_556_867"/>
</filter>
<linearGradient id="paint0_linear_556_867" x1="-12.6667" y1="-20.7217" x2="89.0303" y2="115.387" gradientUnits="userSpaceOnUse">
<stop stop-color="#5BACC5"/>
<stop offset="0.0738289" stop-color="#509AD8"/>
<stop offset="1" stop-color="#421C72"/>
</linearGradient>
<linearGradient id="paint1_linear_556_867" x1="85.1802" y1="98.5104" x2="99.1891" y2="95.045" gradientUnits="userSpaceOnUse">
<stop stop-color="#5BACC5"/>
<stop offset="0.0738289" stop-color="#509AD8"/>
<stop offset="1" stop-color="#421C72"/>
</linearGradient>
<linearGradient id="paint2_linear_556_867" x1="85.1805" y1="98.5103" x2="99.1891" y2="95.045" gradientUnits="userSpaceOnUse">
<stop stop-color="#5BACC5"/>
<stop offset="0.0738289" stop-color="#509AD8"/>
<stop offset="1" stop-color="#421C72"/>
</linearGradient>
<linearGradient id="paint3_linear_556_867" x1="85.1805" y1="98.5101" x2="99.1891" y2="95.0448" gradientUnits="userSpaceOnUse">
<stop stop-color="#5BACC5"/>
<stop offset="0.0738289" stop-color="#509AD8"/>
<stop offset="1" stop-color="#421C72"/>
</linearGradient>
<linearGradient id="paint4_linear_556_867" x1="85.1804" y1="98.5099" x2="99.1891" y2="95.0445" gradientUnits="userSpaceOnUse">
<stop stop-color="#5BACC5"/>
<stop offset="0.0738289" stop-color="#509AD8"/>
<stop offset="1" stop-color="#421C72"/>
</linearGradient>
<linearGradient id="paint5_linear_556_867" x1="85.1805" y1="98.5102" x2="99.1891" y2="95.0449" gradientUnits="userSpaceOnUse">
<stop stop-color="#5BACC5"/>
<stop offset="0.0738289" stop-color="#509AD8"/>
<stop offset="1" stop-color="#421C72"/>
</linearGradient>
</defs>
</svg>
